<?xml version="1.0" encoding="UTF-8"?>
<!-- Generated by Pixelmator Pro 3.6.5 -->
<svg width="4500" height="4500" viewBox="0 0 4500 4500" xmlns="http://www.w3.org/2000/svg">
    <path id="Traado" fill="#fffefe" stroke="none" d="M 4500 4500 L 0 4500 L 0 0 L 4500 0 L 4500 4500 Z"/>
    <path id="path1" fill="#646464" stroke="#646464" stroke-width="10" stroke-linecap="round" stroke-linejoin="round" d="M 2278.714844 3227.103516 C 2264.300781 3227.075439 2244.918457 3220.748535 2234.789063 3208.171875 C 2228.86084 3200.811523 2227.140381 3192.512451 2229.675781 3183.503906 C 2231.060547 3178.574707 2237.495605 3173.846924 2248.802734 3169.445313 C 2265.136475 3163.088867 2287.983887 3158.808594 2306.337891 3155.369141 C 2315.804199 3153.594238 2323.980713 3152.062744 2329.136719 3150.617188 C 2335.768066 3148.756348 2344.656006 3143.577881 2354.066406 3138.097656 C 2368.646729 3129.60498 2384.927979 3120.125 2396.855469 3120.125 C 2398.597412 3120.125 2400.240967 3120.326904 2401.777344 3120.763672 C 2405.546631 3121.830566 2408.412842 3124.282227 2410.533203 3128.253906 C 2416.95459 3140.26123 2417.926025 3151.639648 2413.410156 3162.068359 C 2401.510254 3189.580566 2355.342041 3204.644043 2336.044922 3209.841797 C 2329.328857 3211.651367 2322.211182 3214.485596 2315.332031 3217.226563 C 2304.044434 3221.724365 2292.373779 3226.376465 2281.527344 3227.025391 C 2280.614746 3227.07959 2279.675781 3227.105469 2278.714844 3227.103516 Z M 1983.357422 3224.642578 C 1951.508301 3224.57666 1919.207397 3198.06543 1900.5 3182.707031 C 1889.562134 3173.733398 1878.43103 3165.28418 1867.664063 3157.111328 C 1840.605103 3136.572266 1815.045166 3117.172363 1792.585938 3090.208984 C 1762.731445 3054.36792 1733.091553 3011.590332 1707.652344 2974.308594 C 1679.907104 2933.645264 1661.493286 2887.187988 1643.683594 2842.263672 C 1636.358398 2823.785645 1628.785278 2804.683105 1620.662109 2786.226563 C 1604.045288 2748.473145 1591.329224 2716.314453 1583.275391 2682.083984 L 1579.205078 2664.818359 C 1561.598389 2590.165771 1544.967041 2519.654785 1533.167969 2443.304688 C 1527.472778 2406.43335 1524.160522 2367.768799 1520.957031 2330.376953 C 1519.189331 2309.765381 1517.363403 2288.454102 1515.164063 2267.802734 C 1506.509766 2186.501953 1505.426147 2119.042236 1511.753906 2055.503906 C 1521.869995 1953.937256 1538.611084 1850.732178 1554.802734 1750.923828 C 1558.80957 1726.230469 1562.815918 1701.551514 1566.722656 1676.890625 L 1568.599609 1664.943359 C 1580.132568 1591.200928 1590.092041 1527.513184 1651.509766 1477.367188 C 1676.039185 1457.3396 1718.787231 1448.439453 1753.138672 1456.199219 C 1769.685303 1459.937744 1791.681519 1469.21167 1802.523438 1492.154297 C 1831.223999 1552.875732 1815.359375 1627.305664 1801.363281 1692.972656 C 1799.306396 1702.630859 1797.290649 1712.085449 1795.466797 1721.267578 C 1778.983276 1804.237549 1752.219238 1861.609619 1705.972656 1913.107422 C 1690.129272 1930.749023 1671.261475 1947.807373 1653.017578 1964.304688 C 1604.510498 2008.159668 1554.355347 2053.508545 1544.898438 2120.621094 C 1539.427368 2159.455811 1553.23291 2208.050537 1577.015625 2233.652344 C 1583.614502 2240.757813 1591.228394 2245.474609 1598.59375 2250.035156 C 1607.139893 2255.328613 1615.213989 2260.329346 1621.75 2268.777344 C 1634.62085 2285.4104 1638.698608 2306.580078 1642.640625 2327.054688 C 1643.333862 2330.655029 1644.022461 2334.240479 1644.755859 2337.785156 C 1651.784302 2371.7771 1658.277954 2406.283936 1664.556641 2439.654297 C 1668.998535 2463.250244 1673.445435 2486.890137 1678.125 2510.630859 C 1691.112793 2576.531494 1708.388428 2653.841797 1738.0625 2727.574219 C 1761.380859 2785.509766 1797.635742 2812.224609 1845.783203 2807.017578 C 1871.694336 2804.210449 1910.135498 2790.879395 1922.816406 2765.162109 C 1924.89502 2761.71875 1926.823242 2758.208008 1928.554688 2754.611328 C 1930.343262 2751.293457 1932.036621 2747.927246 1933.578125 2744.486328 C 1943.473633 2726.986816 1950.427734 2698.38623 1953.3125 2684.953125 C 1956.43689 2670.410156 1960.110352 2655.82959 1963.998047 2640.392578 C 1975.404785 2595.089355 1987.200317 2548.248047 1984.126953 2503.470703 C 1979.821289 2440.785156 1979.937622 2371.972412 1984.488281 2286.912109 C 1986.643799 2246.608398 1988.50708 2198.373535 1985.980469 2146.191406 C 1985.051025 2127.036865 1982.224731 2068.74585 2011.490234 2057.535156 C 2036.779663 2047.863281 2056.118164 2087.49292 2067.679688 2111.177734 C 2069.545166 2115.005127 2071.241943 2118.474121 2072.761719 2121.351563 C 2108.70166 2189.407471 2124.195801 2260.348633 2117.566406 2326.503906 C 2115.289551 2349.212891 2114.102295 2372.813477 2112.951172 2395.638672 C 2112.138184 2411.76001 2111.296143 2428.431885 2110.080078 2444.691406 C 2109.299805 2455.108398 2109.091064 2467.355469 2108.871094 2480.322266 C 2108.381104 2508.98999 2107.827637 2541.481934 2100.771484 2563.671875 C 2098.756104 2570.013916 2090.414307 2580.416016 2062.136719 2593.96875 L 2058.162109 2595.859375 C 2036.78894 2605.972656 1997.005737 2624.796875 1992.205078 2652.439453 C 1987.27771 2680.806152 2015.50293 2687.269043 2040.40625 2692.96875 C 2055.348877 2696.390137 2069.461914 2699.623047 2074.910156 2706.871094 C 2093.26709 2731.303223 2080.78418 2797.119385 2063.240234 2822.263672 C 2053.286133 2828.046143 2045.168457 2838.073242 2037.722656 2847.304688 C 2033.624634 2852.385742 2029.753784 2857.185547 2025.875 2860.933594 L 2025.027344 2861.751953 C 2006.778564 2879.390869 1987.905884 2897.631592 1966.693359 2911.060547 C 1952.284058 2920.174316 1935.814453 2927.178711 1919.886719 2933.955078 L 1911.972656 2937.337891 C 1894.886108 2944.695801 1887.387939 2950.945801 1888.445313 2956.939453 C 1888.2771 2958.454834 1888.350464 2959.969238 1888.556641 2961.464844 C 1888.684692 2964.84375 1889.596558 2968.307129 1890.798828 2971.53125 C 1891.947388 2974.611328 1893.237305 2977.818359 1894.896484 2980.75 C 1895.020386 2981.1875 1895.1875 2981.629395 1895.439453 2982.078125 C 1895.655151 2982.463379 1895.891968 2982.833984 1896.115234 2983.214844 C 1896.233765 2983.61377 1896.385254 2984.005859 1896.597656 2984.378906 C 1897.608032 2986.155273 1898.763184 2987.852539 1900.009766 2989.478516 C 1900.598022 2990.544434 1901.270874 2991.540039 1901.986328 2992.501953 C 1909.643799 3006.234863 1920.191162 3018.895996 1929.818359 3028.841797 C 1947.099731 3046.694824 1967.797119 3061.723145 1990.173828 3072.761719 C 1984.914307 3078.592773 1981.89502 3086.111084 1980.753906 3093.90625 C 1979.057251 3098.178467 1977.968628 3103.787598 1977.480469 3110.927734 C 1976.656616 3123.026611 1979.018555 3135.778564 1983.888672 3146.740234 C 1987.327637 3158.324951 1993.980713 3168.591797 2002.972656 3176.398438 C 2008.041504 3181.974121 2014.019287 3186.626465 2020.673828 3189.757813 C 2021.317261 3192.287598 2021.688599 3194.816406 2021.675781 3197.289063 C 2021.614502 3208.493164 2014.434326 3216.94043 2000.914063 3221.720703 C 1995.13623 3223.760986 1989.255371 3224.654785 1983.357422 3224.642578 Z M 2170.314453 3021.382813 C 2138.731445 3021.410645 2107.336182 3020.047607 2075.746094 3020.830078 C 2045.119507 3021.588379 2015.458252 3015.081055 1984.972656 3014.583984 C 1983.988037 3014.567871 1983.067017 3014.452148 1982.203125 3014.263672 C 1980.807251 3014.271729 1979.4646 3014.242188 1978.203125 3014.160156 C 1966.415527 3013.394043 1951.553467 3006.499756 1945.958984 2994.8125 C 1943.511353 2989.701172 1943.910889 2981.969727 1945.099609 2976.435547 C 1945.90564 2972.683594 1947.734253 2970.611816 1949.908203 2968.46875 C 1956.784058 2962.116211 1969.941162 2961.979736 1978.617188 2960.123047 C 1987.432861 2958.236328 1996.224854 2956.222168 2004.832031 2953.521484 C 2020.981079 2948.45459 2035.99707 2938.76709 2052.708984 2936.003906 C 2066.381104 2934.881104 2079.128662 2937.329346 2095.851563 2940.582031 C 2098.922119 2941.179932 2102.122559 2941.801758 2105.480469 2942.429688 C 2134.522217 2947.886719 2156.117432 2941.131836 2178.980469 2933.996094 C 2184.047852 2932.413574 2189.218262 2930.819824 2194.542969 2929.3125 C 2194.541016 2929.325439 2194.537842 2929.338379 2194.535156 2929.351563 C 2194.814209 2929.242676 2195.092041 2929.129395 2195.384766 2929.052734 C 2195.494385 2929.023926 2195.586914 2929.040527 2195.6875 2929.035156 C 2195.939697 2928.95752 2196.187988 2928.86084 2196.443359 2928.796875 C 2197.095703 2928.595215 2197.751465 2928.409668 2198.419922 2928.267578 C 2198.453857 2928.257324 2198.487305 2928.241211 2198.521484 2928.232422 C 2203.821777 2926.812988 2209.282471 2925.493164 2215.070313 2924.4375 C 2236.7771 2920.484131 2257.79834 2929.572266 2278.123047 2938.359375 C 2285.480713 2941.539795 2293.092529 2944.833008 2300.523438 2947.382813 C 2305.030518 2948.931396 2309.580322 2950.355469 2314.152344 2951.705078 C 2314.532227 2951.967041 2314.946045 2952.203613 2315.421875 2952.388672 C 2318.608154 2953.630371 2321.827148 2954.761719 2325.0625 2955.84375 C 2335.928223 2960.458496 2346.688721 2965.310059 2357.353516 2970.376953 C 2358.991455 2971.194092 2360.71167 2971.993408 2362.464844 2972.798828 C 2362.532227 2972.831543 2362.600586 2972.861816 2362.667969 2972.894531 C 2366.927246 2974.956787 2370.536377 2976.416992 2373.798828 2980.082031 C 2378.833008 2985.737305 2377.837402 2991.108398 2373.984375 2996.378906 C 2373.26001 2996.783203 2372.572754 2997.226563 2371.816406 2997.59375 C 2359.216797 3003.7146 2345.100342 3007.318359 2331.832031 3011.908203 C 2322.95459 3013.438721 2314.088867 3015.191895 2305.068359 3015.71875 C 2304.089355 3015.775879 2303.111084 3015.79834 2302.132813 3015.837891 C 2258.627441 3021.749512 2214.134033 3021.344238 2170.314453 3021.382813 Z M 2424.238281 2903.597656 C 2403.57251 2903.601563 2382.928955 2902.201904 2362.365234 2899.314453 C 2362.23584 2899.296143 2362.118652 2899.309082 2361.992188 2899.298828 C 2360.519287 2898.6875 2359.042969 2898.062256 2357.574219 2897.458984 C 2341.256348 2890.757324 2324.382813 2883.827148 2310.326172 2873.373047 C 2301.919922 2867.124023 2294.017578 2859.762695 2286.376953 2852.642578 C 2275.852539 2842.837402 2264.971191 2832.700195 2252.408203 2825.064453 C 2241.60376 2818.496338 2231.856445 2816.141113 2222.646484 2816.271484 C 2222.445557 2799.229736 2217.529297 2781.73584 2212.744141 2764.800781 C 2209.556641 2753.524902 2206.262939 2741.862793 2204.466797 2730.605469 C 2201.781494 2713.739258 2200.231445 2685.989746 2203.507813 2683.724609 C 2203.509766 2683.724609 2203.648193 2683.739746 2203.949219 2683.912109 C 2237.47876 2703.27002 2269.130859 2706.341797 2293.070313 2692.564453 C 2319.144043 2677.557129 2334.156982 2644.018066 2334.269531 2600.552734 C 2334.329346 2577.218506 2326.577881 2555.874023 2319.082031 2535.236328 C 2317.069092 2529.692871 2315.047852 2524.128906 2313.15625 2518.494141 C 2297.604492 2472.126465 2279.97876 2419.574219 2274.476563 2365.951172 C 2273.297363 2354.457764 2271.692139 2342.846924 2269.994141 2330.552734 C 2263.33667 2282.386719 2256.453369 2232.578857 2275.5 2189.458984 C 2281.518066 2175.833984 2288.37085 2162.774414 2297.6875 2159.486328 C 2301.760498 2158.05249 2306.080322 2158.5625 2310.867188 2161.033203 C 2318.718262 2165.084717 2325.196533 2176.126465 2331.458984 2186.804688 C 2336.465088 2195.342041 2341.643066 2204.167969 2347.667969 2209.578125 C 2368.239502 2228.058105 2386.319092 2238.615479 2410.076172 2246.017578 C 2459.1875 2261.31958 2518.186523 2267.983154 2564.056641 2263.392578 L 2568.796875 2262.921875 C 2605.552002 2259.276611 2634.585693 2256.395264 2667.851563 2236.751953 C 2681.796387 2228.518555 2693.780518 2218.065674 2705.363281 2207.957031 C 2711.802734 2202.338867 2718.460938 2196.525635 2725.349609 2191.197266 C 2727.418213 2189.597656 2729.095703 2187.12207 2730.720703 2184.728516 C 2734.115723 2179.719971 2736.484131 2176.764404 2740.224609 2177.810547 C 2747.375 2179.795654 2751.228271 2200.49707 2751.205078 2210.580078 C 2751.167725 2229.489502 2752.450928 2242.103271 2756.486328 2262.476563 C 2765.751953 2309.264893 2760.633301 2362.006348 2755.103516 2407.771484 C 2751.61084 2436.694092 2746.207031 2461.163574 2738.580078 2482.576172 C 2729.571045 2507.863037 2720.92749 2534.025879 2712.572266 2559.324219 C 2697.137207 2606.049316 2681.174561 2654.366211 2662.03125 2699.914063 C 2639.1521 2754.351807 2589.200928 2850.72583 2511.712891 2884.544922 C 2491.685791 2893.286377 2472.199463 2899.022461 2452.427734 2902.730469 C 2443.031006 2903.304199 2433.631836 2903.595703 2424.238281 2903.597656 Z M 2975.232422 2633.757813 C 2970.897705 2633.715332 2967.756836 2632.349609 2965.658203 2629.634766 C 2953.697754 2614.169678 2976.036865 2559.478027 2988.039063 2530.095703 C 2992.139404 2520.050049 2995.378906 2512.114746 2996.462891 2507.949219 C 2999.988525 2494.435547 3004.173828 2480.885498 3008.222656 2467.783203 C 3013.75708 2449.861328 3019.483154 2431.328613 3023.611328 2412.578125 C 3024.839844 2406.994629 3025.278076 2398.425781 3025.787109 2388.503906 C 3026.487549 2374.811035 3027.282227 2359.291504 3030.308594 2345.84375 C 3033.502686 2331.636963 3038.519043 2322.811523 3045.636719 2318.865234 C 3051.250244 2315.752441 3058.468262 2315.71167 3067.089844 2318.726563 C 3086.863037 2325.652588 3094.723389 2352.208496 3101.037109 2373.548828 C 3102.942871 2379.9729 3104.73584 2386.039307 3106.697266 2391.064453 C 3128.511963 2446.9104 3116.332031 2485.411133 3089.609375 2529.429688 C 3072.787354 2557.147217 3058.912354 2572.215332 3032.498047 2591.4375 C 3027.510254 2595.065918 3021.592773 2600.823242 3015.330078 2606.917969 C 3003.197021 2618.72168 2989.444092 2632.103027 2979.015625 2633.501953 C 2977.826416 2633.661621 2976.707275 2633.747559 2975.65625 2633.757813 C 2975.513916 2633.759277 2975.372314 2633.759277 2975.232422 2633.757813 Z M 2168.259766 2272.582031 C 2153.651123 2227.589355 2168.016602 2176.713623 2184.046875 2128.386719 C 2196.18042 2091.814209 2217.565674 2057.847656 2238.25 2025 C 2243.924072 2015.984375 2249.579346 2007.006836 2255.017578 1998.021484 L 2258.90625 1991.609375 C 2285.264648 1948.197754 2308.032227 1910.707275 2307.966797 1856.902344 C 2307.896973 1797.58374 2308.784912 1743.941895 2320.404297 1688.154297 C 2329.48291 1644.555908 2343.81543 1593.869873 2381.255859 1548.503906 C 2404 1520.942383 2422.801758 1503.5 2435.630859 1498.054688 C 2445.031982 1494.063721 2455.843994 1493.09375 2466.945313 1493.09375 C 2472.236572 1493.09375 2477.592041 1493.313232 2482.892578 1493.533203 C 2494.124268 1493.995361 2505.748779 1494.472656 2516.359375 1492.835938 C 2644.05542 1473.123291 2676.024658 1607.477783 2699.347656 1705.570313 L 2702.5 1718.779297 C 2710.560791 1752.25 2717.5979 1786.645752 2724.402344 1819.90625 C 2728.843506 1841.622803 2733.438477 1864.078857 2738.304688 1886.234375 C 2746.0896 1921.673828 2750.480469 1957.80542 2751.353516 1993.621094 C 2751.405029 1995.678223 2751.820313 1999.922607 2752.394531 2005.794922 C 2754.029297 2022.455811 2759.00293 2073.158691 2751.306641 2076.701172 C 2738.416748 2082.62085 2722.091064 2070.104004 2708.972656 2060.046875 C 2705.469482 2057.359131 2702.16333 2054.82251 2699.123047 2052.78125 C 2688.470215 2045.624268 2678.433105 2037.694092 2668.728516 2030.025391 C 2651.252441 2016.218018 2633.188477 2001.940918 2611.439453 1992.273438 C 2543.591309 1962.122803 2470.835449 1952.39917 2395.173828 1963.357422 C 2377.950439 1965.854004 2359.35376 1979.668945 2344.414063 1990.769531 C 2341.023193 1993.289307 2337.786621 1995.694092 2334.755859 1997.828125 C 2303.035645 2020.193848 2277.752441 2061.760254 2255.445313 2098.435547 C 2250.48999 2106.580322 2245.734863 2114.398926 2241.158203 2121.572266 C 2223.325439 2149.532471 2207.667725 2174.902344 2196.636719 2202.255859 C 2193.575439 2209.849365 2191.751953 2218.855713 2189.986328 2227.568359 C 2186.442139 2245.065186 2182.778564 2263.157715 2169.136719 2272.033203 C 2168.847168 2272.220459 2168.555908 2272.4021 2168.259766 2272.582031 Z"/>
    <path id="path2" fill="#323232" stroke="none" d="M 2982.34082 2211.4375 C 2979.571289 2015.439697 2965.551514 1827.908691 2938.235107 1621.440186 C 2914.324219 1440.721191 2781.976074 1277.668945 2584.203369 1185.276367 C 2423.465332 1110.18457 2222.724854 1087.333496 2003.686523 1119.193359 C 1894.575195 1135.062744 1812.071899 1160.283691 1744.036743 1198.567627 C 1695.163086 1226.067871 1625.647827 1268.358643 1586.392578 1317.892822 C 1546.228882 1368.580566 1512.403076 1427.581299 1485.857544 1493.260254 C 1440.601563 1605.232422 1418.836182 1735.376465 1421.166382 1880.076904 C 1422.016357 1932.903564 1425.715088 1986.164795 1429.290039 2037.672119 C 1433.353271 2096.231201 1437.556396 2156.775635 1437.596313 2216.980957 C 1437.166748 2217.114502 1436.500854 2217.352295 1435.901001 2217.800537 C 1407.888916 2212.500244 1381.299683 2232.843262 1369.266724 2256.105469 C 1357.0448 2279.736816 1355.464355 2306.281494 1354.75415 2336.028564 C 1353.138428 2403.977295 1353.392822 2475.998535 1375.300781 2543.867432 C 1393.869141 2601.380859 1430.591064 2675.589844 1500.199585 2703.538818 C 1531.436157 2874.025879 1588.419434 3017.388428 1669.570679 3129.645264 C 1766.157104 3263.251953 1903.026001 3355.992432 2045.080688 3384.083496 C 2081.13916 3391.212891 2117.849121 3394.783203 2154.846436 3394.783203 C 2180.051514 3394.783203 2205.391602 3393.125 2230.748291 3389.806641 C 2286.339844 3382.535156 2329.725586 3375.667969 2381.96167 3353.44043 C 2444.504639 3326.834473 2504.011963 3296.828613 2558.844482 3264.258301 C 2569.861328 3257.713379 2581.219238 3251.23584 2592.208008 3244.970703 C 2624.273682 3226.689209 2657.427246 3207.784668 2686.93335 3184.454834 C 2731.286133 3149.379395 2760.525879 3106.560791 2785.511475 3065.514893 C 2840.806396 2974.688965 2876.108154 2874.002441 2893.34082 2757.890137 C 2910.214355 2766.714355 2985.675049 2747.356689 2992.325439 2744.818359 C 3041.83374 2725.906738 3084.566162 2678.90332 3112.643555 2612.467773 C 3151.298584 2520.998047 3156.781006 2407.090088 3125.971924 2335.46582 C 3098.123779 2270.716064 3043.216797 2223.365234 2982.34082 2211.4375 Z M 3089.610107 2529.429932 C 3072.788086 2557.147461 3058.912842 2572.21582 3032.498535 2591.437988 C 3027.510742 2595.066406 3021.593506 2600.822998 3015.330811 2606.91748 C 3003.197754 2618.721191 2989.443848 2632.103516 2979.015381 2633.502441 C 2972.67334 2634.354492 2968.325195 2633.084473 2965.658936 2629.635254 C 2953.698486 2614.17041 2976.036133 2559.477783 2988.03833 2530.095459 C 2992.138672 2520.049805 2995.379639 2512.115234 2996.463623 2507.949707 C 2999.989258 2494.436035 3004.173828 2480.885742 3008.222656 2467.783691 C 3013.75708 2449.861572 3019.482666 2431.328125 3023.61084 2412.577637 C 3024.839355 2406.994141 3025.27832 2398.426758 3025.787354 2388.504883 C 3026.487793 2374.812012 3027.281738 2359.290771 3030.308105 2345.843018 C 3033.502197 2331.63623 3038.518066 2322.812012 3045.635742 2318.865723 C 3051.249268 2315.75293 3058.468994 2315.710693 3067.090576 2318.725586 C 3086.86377 2325.651611 3094.723877 2352.208252 3101.037598 2373.548584 C 3102.943359 2379.972656 3104.736572 2386.039063 3106.697998 2391.064209 C 3128.512695 2446.910156 3116.332764 2485.411377 3089.610107 2529.429932 Z M 3112.884277 2494.526123 C 3111.618652 2497.712158 3110.232422 2500.894043 3108.757813 2504.078125 C 3110.232422 2500.894043 3111.618652 2497.712402 3112.884277 2494.526123 Z M 3105.406738 2511.01416 C 3104.333008 2513.135986 3103.204346 2515.265381 3102.048828 2517.399658 C 3103.204834 2515.265137 3104.333008 2513.135986 3105.406738 2511.01416 Z M 3097.649658 2525.242188 C 3096.693115 2526.892578 3095.715332 2528.549805 3094.716553 2530.213135 C 3095.715332 2528.549316 3096.693115 2526.892578 3097.649658 2525.242188 Z M 3083.327881 2547.887451 C 3082.147461 2549.572998 3080.962402 2551.210449 3079.773926 2552.807129 C 3080.962891 2551.210449 3082.147461 2549.572998 3083.327881 2547.887451 Z M 3058.874023 2311.932617 C 3061.617676 2312.230225 3064.506348 2312.876465 3067.530273 2313.86084 C 3064.506348 2312.876465 3061.617676 2312.230225 3058.874023 2311.932617 Z M 3111.153564 2389.324707 C 3109.738281 2385.697754 3108.388916 2381.430908 3107.012695 2376.856689 C 3108.38916 2381.430908 3109.739014 2385.697754 3111.153564 2389.324707 C 3112.561523 2392.929932 3113.832764 2396.464111 3114.971924 2399.933594 C 3113.832764 2396.464111 3112.561523 2392.929932 3111.153564 2389.324707 Z M 3057.857422 2311.818115 C 3052.412842 2311.390625 3047.54541 2312.340576 3043.314697 2314.68335 C 3040.172607 2316.425781 3037.395996 2318.900146 3034.966797 2322.135498 C 3037.395996 2318.900146 3040.172607 2316.425537 3043.314697 2314.68335 C 3047.54541 2312.340576 3052.412842 2311.390625 3057.857422 2311.818115 Z M 3011.829834 2439.233398 C 3013.395508 2433.767578 3014.858398 2428.263672 3016.249512 2422.746094 C 3014.858398 2428.263672 3013.395508 2433.767578 3011.829834 2439.233398 Z M 3003.650391 2466.370605 C 3002.328125 2470.651367 3000.998047 2474.990723 2999.674072 2479.351074 C 3000.998047 2474.990234 3002.328125 2470.651367 3003.650391 2466.370605 C 3005.02832 2461.913574 3006.41748 2457.418457 3007.790039 2452.893311 C 3006.41748 2457.418457 3005.028564 2461.913574 3003.650391 2466.370605 Z M 2991.839844 2506.744385 C 2991.587646 2507.708984 2991.199219 2508.919922 2990.696045 2510.348633 C 2991.199219 2508.919922 2991.587646 2507.70874 2991.839844 2506.744385 C 2992.984375 2502.354004 2994.209717 2497.97168 2995.463135 2493.599121 C 2994.209717 2497.97168 2992.984375 2502.354004 2991.839844 2506.744385 Z M 2986.457031 2521.29541 C 2987.780029 2518.022949 2988.936035 2515.108398 2989.856445 2512.650879 C 2988.936035 2515.108398 2987.779541 2518.022949 2986.457031 2521.29541 Z M 2957.731445 2609.988281 C 2957.553223 2611.92334 2957.454102 2613.782715 2957.442383 2615.561523 C 2957.45459 2613.782715 2957.553223 2611.92334 2957.731445 2609.988281 Z M 2961.875732 2632.559082 C 2962.601318 2633.498535 2963.416992 2634.318604 2964.309082 2635.037109 C 2963.416992 2634.318604 2962.600586 2633.498535 2961.875732 2632.559082 C 2961.296387 2631.80957 2960.798584 2630.981934 2960.3396 2630.117188 C 2960.798584 2630.981934 2961.296387 2631.810059 2961.875732 2632.559082 Z M 2967.594238 2637.037109 C 2969.867432 2638.03418 2972.505127 2638.534668 2975.494141 2638.534668 C 2976.811279 2638.534668 2978.198242 2638.436523 2979.650635 2638.242676 C 2978.198242 2638.436523 2976.810791 2638.534668 2975.494141 2638.534668 C 2972.505127 2638.534668 2969.867432 2638.03418 2967.594238 2637.037109 C 2966.63623 2636.617676 2965.758057 2636.089111 2964.929932 2635.49292 C 2965.758057 2636.089111 2966.63623 2636.617188 2967.594238 2637.037109 Z M 2986.619141 2636.125488 C 2996.968018 2631.451904 3008.374512 2620.355469 3018.665283 2610.345459 C 3019.432617 2609.598633 3020.193848 2608.857178 3020.94873 2608.124512 C 3022.090088 2607.017578 3023.209961 2605.94043 3024.314941 2604.886719 C 3023.209961 2605.940918 3022.090576 2607.01709 3020.94873 2608.124512 C 3020.193848 2608.857178 3019.432617 2609.598633 3018.665283 2610.345459 C 3008.374756 2620.355469 2996.968018 2631.451904 2986.619141 2636.125488 C 2985.027344 2636.844238 2983.459961 2637.411621 2981.926025 2637.799316 C 2983.459961 2637.411621 2985.027344 2636.844238 2986.619141 2636.125488 Z M 3014.442871 2728.686035 C 3013.248779 2729.402832 3012.049316 2730.100586 3010.844482 2730.78125 C 3012.049316 2730.100586 3013.248779 2729.402832 3014.442871 2728.686035 Z M 3030.543213 2717.71582 C 3027.013184 2720.423096 3023.426025 2722.962402 3019.787354 2725.339355 C 3023.426025 2722.962402 3027.013184 2720.423096 3030.543213 2717.71582 Z M 3031.584473 2598.26123 C 3032.885986 2597.157227 3034.131592 2596.162109 3035.309814 2595.304932 C 3043.553711 2589.306152 3050.593506 2583.701172 3056.898926 2578.004883 C 3050.593506 2583.701172 3043.553955 2589.306152 3035.309814 2595.304932 C 3034.13208 2596.162109 3032.885986 2597.157227 3031.584473 2598.26123 Z M 3064.717773 2570.513672 C 3062.44165 2572.838623 3060.074219 2575.114502 3057.597656 2577.374512 C 3060.074219 2575.114746 3062.44165 2572.838623 3064.717773 2570.513672 Z M 3122.294434 2434.237305 C 3121.743408 2428.062012 3120.733154 2421.708496 3119.224365 2415.130859 C 3120.733154 2421.708496 3121.743408 2428.062012 3122.294434 2434.237305 C 3122.570068 2437.324951 3122.730713 2440.368408 3122.781982 2443.373047 C 3122.730713 2440.368408 3122.570068 2437.324951 3122.294434 2434.237305 Z M 2977.444336 2213.455078 L 2977.444336 2215.418945 L 2979.547852 2215.773682 C 3003.958008 2220.248535 3027.433838 2230.59375 3048.551514 2245.591553 C 3027.433838 2230.594238 3003.957764 2220.248535 2979.547852 2215.773682 L 2980.342529 2215.418945 L 2980.342529 2213.455078 C 2977.248535 2188.891602 2976.733887 2164.461914 2976.03833 2140.112793 C 2976.733887 2164.461914 2977.248535 2188.891602 2977.444336 2213.455078 Z M 2933.490479 1622.066406 C 2938.624756 1660.871338 2943.288574 1699.007324 2947.496338 1736.655762 C 2943.288574 1699.007324 2938.624756 1660.871338 2933.490479 1622.066406 C 2929.04834 1588.486572 2920.821777 1555.519531 2909.092285 1523.51123 C 2920.821777 1555.519287 2929.048584 1588.486328 2933.490479 1622.066406 Z M 2822.557373 1373.065918 C 2816.792725 1365.970215 2810.770508 1359.008545 2804.616699 1352.118164 C 2810.770508 1359.008057 2816.792725 1365.970215 2822.557373 1373.065918 Z M 2778.521973 3067.765137 C 2777.321045 3069.716797 2776.107422 3071.67041 2774.884277 3073.627686 C 2776.107422 3071.67041 2777.321045 3069.716797 2778.521973 3067.765137 Z M 2662.031738 2699.914551 C 2639.152588 2754.352295 2589.200684 2850.726318 2511.712646 2884.54541 C 2491.685547 2893.286865 2472.198975 2899.022461 2452.427246 2902.730469 C 2422.357666 2904.566162 2392.275635 2903.515137 2362.364746 2899.315186 C 2362.235352 2899.296875 2362.118164 2899.30957 2361.991699 2899.299316 C 2360.518799 2898.687988 2359.042969 2898.061523 2357.574219 2897.458496 C 2341.256348 2890.756836 2324.382813 2883.826172 2310.326172 2873.37207 C 2301.919922 2867.123047 2294.017822 2859.763184 2286.377197 2852.643311 C 2275.852783 2842.837891 2264.971436 2832.699707 2252.408447 2825.063965 C 2241.604004 2818.495605 2231.855713 2816.141113 2222.645752 2816.271484 C 2222.444824 2799.229736 2217.530029 2781.734863 2212.744873 2764.799805 C 2209.557373 2753.523926 2206.262695 2741.862305 2204.466553 2730.60498 C 2201.78125 2713.738525 2200.230957 2685.990234 2203.507324 2683.725098 C 2203.509277 2683.725098 2203.647461 2683.739746 2203.948486 2683.912109 C 2237.478027 2703.27002 2269.129883 2706.34082 2293.069336 2692.563477 C 2319.143066 2677.556152 2334.157715 2644.017334 2334.270264 2600.551758 C 2334.330078 2577.217773 2326.578125 2555.874512 2319.082275 2535.237061 C 2317.069336 2529.693604 2315.047119 2524.129395 2313.155518 2518.494385 C 2297.60376 2472.126709 2279.979492 2419.573486 2274.477295 2365.950439 C 2273.298096 2354.457031 2271.692139 2342.847168 2269.994141 2330.552979 C 2263.33667 2282.386963 2256.453369 2232.57959 2275.5 2189.459717 C 2281.518066 2175.834717 2288.371582 2162.774658 2297.688232 2159.486572 C 2301.76123 2158.052734 2306.080322 2158.561768 2310.867188 2161.032471 C 2318.718262 2165.083984 2325.195801 2176.126465 2331.458252 2186.804688 C 2336.464355 2195.342041 2341.643799 2204.168457 2347.668701 2209.578613 C 2368.240234 2228.058594 2386.318848 2238.615723 2410.075928 2246.017822 C 2459.187256 2261.319824 2518.186279 2267.983887 2564.056396 2263.393311 L 2568.796387 2262.921875 C 2605.551514 2259.276611 2634.585205 2256.395264 2667.851074 2236.751953 C 2681.795898 2228.518555 2693.779541 2218.064697 2705.362305 2207.956055 C 2711.801758 2202.337891 2718.46167 2196.525635 2725.350342 2191.197266 C 2727.418945 2189.597656 2729.095947 2187.122314 2730.720947 2184.72876 C 2734.115967 2179.720215 2736.483887 2176.763916 2740.224365 2177.810059 C 2747.374756 2179.795166 2751.227539 2200.497803 2751.204346 2210.580811 C 2751.166992 2229.490234 2752.451172 2242.102295 2756.486572 2262.475586 C 2765.752197 2309.263916 2760.633301 2362.006348 2755.103516 2407.771484 C 2751.61084 2436.694092 2746.207764 2461.163574 2738.580811 2482.576172 C 2729.571777 2507.863281 2720.927734 2534.025391 2712.57251 2559.32373 C 2697.137451 2606.048828 2681.175049 2654.366699 2662.031738 2699.914551 Z M 2075.746826 3020.82959 C 2045.120239 3021.587891 2015.457764 3015.080322 1984.972168 3014.583008 C 1983.987549 3014.566895 1983.067749 3014.451904 1982.203857 3014.263428 C 1980.807983 3014.271484 1979.465332 3014.241211 1978.203857 3014.15918 C 1966.41626 3013.393066 1951.553345 3006.5 1945.958862 2994.812744 C 1943.51123 2989.701172 1943.910889 2981.969971 1945.099609 2976.435791 C 1945.90564 2972.684082 1947.734497 2970.61084 1949.908447 2968.467773 C 1956.784302 2962.115234 1969.94104 2961.979004 1978.617065 2960.12207 C 1987.432739 2958.235352 1996.224487 2956.222168 2004.831665 2953.521484 C 2020.980713 2948.45459 2035.997559 2938.766602 2052.709473 2936.003418 C 2066.381592 2934.880615 2079.129395 2937.329834 2095.852295 2940.58252 C 2098.922852 2941.18042 2102.12207 2941.801758 2105.47998 2942.429688 C 2134.521729 2947.886719 2156.116699 2941.131348 2178.979736 2933.995605 C 2184.047119 2932.413086 2189.218506 2930.819824 2194.543213 2929.3125 C 2194.54126 2929.325684 2194.53833 2929.338867 2194.535645 2929.352051 C 2194.814697 2929.243164 2195.092041 2929.129883 2195.384766 2929.053223 C 2195.494385 2929.024414 2195.586914 2929.040771 2195.6875 2929.0354 C 2195.939697 2928.958008 2196.187988 2928.860352 2196.443359 2928.796387 C 2197.095703 2928.594727 2197.752197 2928.40918 2198.420654 2928.266846 C 2198.45459 2928.256348 2198.487305 2928.240967 2198.521484 2928.231934 C 2203.821777 2926.8125 2209.282959 2925.493652 2215.070801 2924.437988 C 2236.777588 2920.484619 2257.798096 2929.57251 2278.122803 2938.359619 C 2285.480469 2941.540039 2293.092529 2944.83252 2300.523438 2947.382568 C 2305.030518 2948.931152 2309.580566 2950.354736 2314.152588 2951.704346 C 2314.532471 2951.966309 2314.945801 2952.203369 2315.421631 2952.388672 C 2318.60791 2953.630371 2321.827637 2954.760986 2325.062988 2955.843262 C 2335.928711 2960.458008 2346.688965 2965.311035 2357.35376 2970.37793 C 2358.991699 2971.194824 2360.712158 2971.993652 2362.465332 2972.798828 C 2362.532715 2972.831787 2362.601074 2972.862305 2362.668457 2972.89502 C 2366.927734 2974.957275 2370.536377 2976.417969 2373.798828 2980.082764 C 2378.833008 2985.737793 2377.838379 2991.107666 2373.985352 2996.37793 C 2373.260986 2996.782471 2372.57251 2997.227539 2371.816162 2997.594727 C 2359.216553 3003.715576 2345.099609 3007.319092 2331.831299 3011.908936 C 2322.953857 3013.439453 2314.088379 3015.191406 2305.067871 3015.718262 C 2304.088867 3015.775391 2303.111816 3015.797852 2302.133545 3015.837402 C 2258.628174 3021.749023 2214.133301 3021.344482 2170.313721 3021.382813 C 2138.730713 3021.410889 2107.336914 3020.046875 2075.746826 3020.82959 Z M 2148.889648 3389.971924 C 2140.947998 3389.888672 2133.020996 3389.632813 2125.111572 3389.217285 C 2133.020996 3389.632813 2140.947998 3389.888672 2148.889648 3389.971924 Z M 2092.588867 3386.557129 C 2091.778076 3386.467285 2090.967773 3386.374512 2090.157471 3386.28125 C 2090.967773 3386.374512 2091.778076 3386.467285 2092.588867 3386.557129 Z M 2000.914795 3221.720215 C 1963.936646 3234.77832 1922.671143 3200.910156 1900.49939 3182.707764 C 1889.561523 3173.734375 1878.430298 3165.283447 1867.66333 3157.110596 C 1840.60437 3136.571533 1815.0448 3117.171387 1792.585571 3090.208008 C 1762.731079 3054.367188 1733.092407 3011.590332 1707.653198 2974.308594 C 1679.907959 2933.64502 1661.493774 2887.188477 1643.684082 2842.26416 C 1636.358887 2823.786133 1628.785889 2804.682861 1620.66272 2786.226074 C 1604.045898 2748.472656 1591.329102 2716.314209 1583.275269 2682.083984 L 1579.2052 2664.818115 C 1561.598511 2590.165039 1544.968018 2519.655273 1533.168945 2443.304932 C 1527.473755 2406.433594 1524.160034 2367.769287 1520.956543 2330.377441 C 1519.188843 2309.765869 1517.362671 2288.453613 1515.16333 2267.802246 C 1506.509033 2186.501465 1505.425781 2119.043213 1511.75354 2055.504883 C 1521.869629 1953.938232 1538.611938 1850.731689 1554.803589 1750.92334 C 1558.810425 1726.22998 1562.815063 1701.55249 1566.721802 1676.891602 L 1568.599243 1664.943115 C 1580.132202 1591.200684 1590.091187 1527.513672 1651.509277 1477.367676 C 1676.038696 1457.340088 1718.787109 1448.44043 1753.13855 1456.200195 C 1769.685181 1459.938721 1791.682007 1469.211182 1802.523926 1492.153809 C 1831.224487 1552.875244 1815.359253 1627.306152 1801.363159 1692.973145 C 1799.306274 1702.631348 1797.290894 1712.085938 1795.467041 1721.268066 C 1778.983521 1804.238037 1752.21875 1861.609131 1705.972168 1913.106934 C 1690.128784 1930.748535 1671.26123 1947.806396 1653.017334 1964.303711 C 1604.510254 2008.158691 1554.354858 2053.508789 1544.897949 2120.621338 C 1539.42688 2159.456055 1553.232178 2208.049561 1577.014893 2233.651367 C 1583.61377 2240.756836 1591.228271 2245.473633 1598.593628 2250.03418 C 1607.139771 2255.327637 1615.2146 2260.329834 1621.75061 2268.777832 C 1634.62146 2285.410889 1638.698364 2306.580566 1642.640381 2327.055176 C 1643.333618 2330.655518 1644.022461 2334.23999 1644.755859 2337.784668 C 1651.784302 2371.776611 1658.278198 2406.284668 1664.556885 2439.655029 C 1668.998779 2463.250977 1673.444702 2486.889404 1678.124268 2510.629883 C 1691.112061 2576.531006 1708.389282 2653.84082 1738.063354 2727.57373 C 1761.381714 2785.509277 1797.636108 2812.225098 1845.783569 2807.018066 C 1871.694702 2804.210938 1910.135986 2790.880127 1922.816895 2765.163086 C 1924.895508 2761.719727 1926.823608 2758.208008 1928.555054 2754.611328 C 1930.343628 2751.293457 1932.037476 2747.927734 1933.578979 2744.487061 C 1943.474487 2726.987793 1950.427246 2698.386719 1953.312012 2684.953613 C 1956.436401 2670.410645 1960.109619 2655.830322 1963.997314 2640.393311 C 1975.404053 2595.090332 1987.201172 2548.248047 1984.127808 2503.470703 C 1979.822144 2440.785156 1979.936646 2371.972656 1984.487305 2286.912354 C 1986.642822 2246.608643 1988.506348 2198.372559 1985.979736 2146.19043 C 1985.050293 2127.035889 1982.224854 2068.745117 2011.490356 2057.534424 C 2036.779785 2047.862549 2056.118652 2087.493408 2067.680176 2111.178223 C 2069.545654 2115.005615 2071.240967 2118.475098 2072.760742 2121.352539 C 2108.700684 2189.408447 2124.196045 2260.348145 2117.56665 2326.503418 C 2115.289795 2349.212402 2114.101563 2372.813477 2112.950439 2395.638672 C 2112.137451 2411.76001 2111.296631 2428.432373 2110.080566 2444.691895 C 2109.300293 2455.108887 2109.090576 2467.356445 2108.870605 2480.322998 C 2108.380615 2508.990723 2107.826904 2541.481445 2100.770752 2563.671387 C 2098.755371 2570.013428 2090.414307 2580.416504 2062.136719 2593.969238 L 2058.161865 2595.858398 C 2036.788696 2605.97168 1997.006104 2624.797363 1992.205444 2652.439941 C 1987.278076 2680.806641 2015.502686 2687.27002 2040.406006 2692.969727 C 2055.348633 2696.391113 2069.461182 2699.622803 2074.909424 2706.870605 C 2093.266357 2731.302734 2080.783691 2797.119873 2063.239746 2822.26416 C 2053.285645 2828.046631 2045.168579 2838.073486 2037.722778 2847.305176 C 2033.624756 2852.38623 2029.75354 2857.184814 2025.874756 2860.932861 L 2025.0271 2861.75293 C 2006.77832 2879.391602 1987.906494 2897.631348 1966.69397 2911.060303 C 1952.284668 2920.174316 1935.814941 2927.179443 1919.887207 2933.956055 L 1911.973633 2937.336914 C 1894.887085 2944.695068 1887.387573 2950.945068 1888.444946 2956.938721 C 1888.276733 2958.454102 1888.350952 2959.969238 1888.557129 2961.464844 C 1888.685181 2964.84375 1889.596924 2968.308105 1890.799194 2971.531982 C 1891.947754 2974.612305 1893.237427 2977.817383 1894.896606 2980.749268 C 1895.020508 2981.187012 1895.187988 2981.629639 1895.439941 2982.078125 C 1895.65564 2982.463623 1895.891357 2982.834473 1896.114624 2983.215332 C 1896.233154 2983.614258 1896.38562 2984.005859 1896.598022 2984.378906 C 1897.608398 2986.155273 1898.763184 2987.852051 1900.009766 2989.477783 C 1900.598022 2990.543457 1901.271484 2991.540771 1901.986938 2992.50293 C 1909.644409 3006.23584 1920.191406 3018.896484 1929.818604 3028.842285 C 1947.099976 3046.695313 1967.797729 3061.722656 1990.174438 3072.760986 C 1984.914917 3078.592285 1981.894653 3086.111816 1980.75354 3093.906738 C 1979.056885 3098.179199 1977.968262 3103.787109 1977.480103 3110.927246 C 1976.65625 3123.026367 1979.019409 3135.77832 1983.889526 3146.73999 C 1987.328491 3158.324707 1993.981079 3168.591797 2002.973022 3176.398438 C 2008.04187 3181.974121 2014.018433 3186.626221 2020.672974 3189.757568 C 2021.316406 3192.287598 2021.689453 3194.81543 2021.676636 3197.288086 C 2021.615356 3208.492188 2014.435059 3216.939941 2000.914795 3221.720215 Z M 1816.562988 3273.560791 C 1811.890991 3270.037354 1807.26062 3266.432617 1802.662109 3262.765137 C 1807.26062 3266.432617 1811.890991 3270.037354 1816.562988 3273.560791 Z M 1519.969727 2373.321289 C 1518.61377 2359.068848 1517.394409 2344.837891 1516.190552 2330.786133 C 1517.394409 2344.837646 1518.61377 2359.068848 1519.969727 2373.321289 Z M 1563.875244 1664.205322 C 1566.066162 1650.196289 1568.201294 1636.545898 1570.638062 1623.273438 C 1568.201294 1636.545898 1566.066162 1650.196533 1563.875244 1664.205322 Z M 1747.95874 1865.053955 C 1743.531128 1872.278564 1738.840088 1879.314209 1733.86792 1886.199219 C 1738.840088 1879.313721 1743.531128 1872.278564 1747.95874 1865.053955 Z M 1697.026611 1929.545654 C 1692.711426 1933.919189 1688.266724 1938.251465 1683.75 1942.544189 C 1688.266724 1938.251465 1692.711426 1933.918701 1697.026611 1929.545654 Z M 1819.384521 1623.237793 C 1820.309082 1616.684326 1821.106934 1610.118408 1821.740234 1603.55957 C 1821.106934 1610.118896 1820.309082 1616.684326 1819.384521 1623.237793 Z M 1987.311401 2079.452393 C 1985.742798 2083.852051 1984.526855 2088.529541 1983.590698 2093.309082 C 1984.526855 2088.529297 1985.742798 2083.852051 1987.311401 2079.452393 Z M 1981.125977 2113.154297 C 1980.782837 2118.478271 1980.667114 2123.628418 1980.673218 2128.356201 C 1980.666382 2123.628418 1980.782837 2118.478271 1981.125977 2113.154297 Z M 1957.864746 1131.598877 C 1962.046997 1130.827393 1966.264771 1130.069336 1970.532593 1129.331055 C 1966.264771 1130.068848 1962.046509 1130.827393 1957.864746 1131.598877 Z M 1959.359985 2639.22583 C 1956.435059 2650.833496 1953.634033 2661.960449 1951.090332 2672.968262 C 1953.634033 2661.960449 1956.435059 2650.833496 1959.359985 2639.22583 Z M 2040.056152 1119.227295 C 2049.095703 1118.14917 2058.106689 1117.149658 2067.076416 1116.261475 C 2058.106689 1117.149658 2049.095703 1118.14917 2040.056152 1119.227295 Z M 2041.4729 2688.30957 C 2035.299683 2686.895996 2029.071289 2685.470215 2023.299072 2683.722168 C 2029.071289 2685.469727 2035.299683 2686.895752 2041.4729 2688.30957 Z M 2563.579834 2258.634521 C 2543.779297 2260.619629 2521.485596 2260.473877 2498.60498 2258.415283 C 2521.485596 2260.473633 2543.779297 2260.619141 2563.579834 2258.634521 Z M 2532.165771 1971.666748 C 2523.368164 1969.840088 2514.506104 1968.329834 2505.583496 1967.136963 C 2496.660645 1965.944824 2487.67749 1965.069336 2478.637939 1964.511719 C 2487.67749 1965.069336 2496.660645 1965.944824 2505.583496 1967.136963 C 2514.506104 1968.329834 2523.368164 1969.840088 2532.165771 1971.666748 C 2540.963135 1973.493164 2549.696533 1975.636719 2558.361084 1978.096191 C 2549.696533 1975.636719 2540.963135 1973.493164 2532.165771 1971.666748 Z M 2238.250977 2024.999512 C 2243.925049 2015.983887 2249.578613 2007.007568 2255.016846 1998.022217 L 2258.906982 1991.610107 C 2285.265381 1948.198486 2308.032715 1910.706299 2307.967285 1856.901367 C 2307.897461 1797.582764 2308.784668 1743.941406 2320.404053 1688.153809 C 2329.482666 1644.55542 2343.815674 1593.870117 2381.256104 1548.50415 C 2404.000244 1520.942627 2422.802246 1503.499756 2435.631348 1498.054443 C 2445.032471 1494.063477 2455.843506 1493.094727 2466.944824 1493.094727 C 2472.236084 1493.094727 2477.592773 1493.313965 2482.893311 1493.533936 C 2494.125 1493.996094 2505.749268 1494.471924 2516.359863 1492.835205 C 2644.056641 1473.122559 2676.023926 1607.47876 2699.346924 1705.571289 L 2702.499023 1718.778809 C 2710.559814 1752.249512 2717.597656 1786.645752 2724.4021 1819.90625 C 2728.843262 1841.622803 2733.439209 1864.079102 2738.30542 1886.234619 C 2746.090332 1921.674072 2750.480713 1957.804932 2751.35376 1993.620605 C 2751.405273 1995.677734 2751.820801 1999.92334 2752.39502 2005.795654 C 2754.029785 2022.456543 2759.003418 2073.158203 2751.307129 2076.700684 C 2738.417236 2082.620361 2722.090576 2070.104004 2708.972168 2060.046875 C 2705.468994 2057.359131 2702.162842 2054.823486 2699.122559 2052.782227 C 2688.469727 2045.625244 2678.433838 2037.693359 2668.729248 2030.024658 C 2651.253174 2016.217285 2633.188965 2001.940674 2611.439941 1992.273193 C 2543.591797 1962.122559 2470.834961 1952.399414 2395.17334 1963.357666 C 2377.949951 1965.854248 2359.353271 1979.668701 2344.413574 1990.769287 C 2341.022705 1993.289063 2337.786377 1995.694336 2334.755615 1997.828369 C 2303.0354 2020.194092 2277.751465 2061.760498 2255.444336 2098.435791 C 2250.489014 2106.580566 2245.734619 2114.398438 2241.157959 2121.571777 C 2223.325195 2149.531982 2207.668457 2174.902832 2196.637451 2202.256348 C 2193.576172 2209.849854 2191.752441 2218.855957 2189.986816 2227.568604 C 2186.442627 2245.06543 2182.778809 2263.157471 2169.136963 2272.032959 C 2168.847412 2272.220215 2168.55542 2272.401855 2168.259277 2272.581787 C 2153.650635 2227.589111 2168.016113 2176.712646 2184.046387 2128.385742 C 2196.179932 2091.813232 2217.56665 2057.847168 2238.250977 2024.999512 Z M 2326.467529 1644.036621 C 2328.257568 1638.10376 2330.219482 1632.118896 2332.389648 1626.106445 C 2330.219482 1632.118896 2328.257568 1638.10376 2326.467529 1644.036621 Z M 2706.177246 1713.584473 L 2707.150879 1717.657715 C 2709.17041 1726.046143 2711.125732 1734.489258 2713.028564 1742.956299 C 2711.125732 1734.489258 2709.17041 1726.046143 2707.150879 1717.657715 L 2706.177246 1713.584473 Z M 2158.016357 2245.684082 C 2157.99292 2245.424561 2157.968262 2245.165283 2157.946045 2244.905762 C 2157.968262 2245.165283 2157.99292 2245.424561 2158.016357 2245.684082 Z M 2165.543213 2279.374512 L 2165.543213 2279.374512 L 2165.096191 2278.104492 L 2165.543213 2279.374512 Z M 2183.099121 2264.320313 C 2181.94043 2266.1604 2180.657959 2267.905029 2179.229492 2269.535645 C 2180.657959 2267.905029 2181.94043 2266.1604 2183.099121 2264.320313 Z M 2191.668701 2242.32959 C 2192.012451 2240.944092 2192.335205 2239.545898 2192.650146 2238.143311 C 2192.335449 2239.545654 2192.012451 2240.944092 2191.668701 2242.32959 C 2189.977539 2249.143311 2187.868652 2255.702148 2184.74707 2261.492188 C 2187.868652 2255.702148 2189.977051 2249.143066 2191.668701 2242.32959 Z M 2210.066406 2184.083252 C 2219.854736 2164.323486 2231.913574 2144.961182 2245.188721 2124.14502 C 2246.337402 2122.34375 2247.49707 2120.503174 2248.668457 2118.626953 C 2250.556396 2115.602295 2252.483154 2112.466309 2254.431885 2109.278564 C 2252.483154 2112.466309 2250.556396 2115.602295 2248.668457 2118.626953 C 2247.49707 2120.503174 2246.337402 2122.34375 2245.188721 2124.14502 C 2231.913574 2144.961182 2219.85498 2164.323242 2210.066406 2184.083252 C 2207.737793 2188.785156 2205.589111 2193.526123 2203.53125 2198.297852 C 2205.589111 2193.526367 2207.737305 2188.785156 2210.066406 2184.083252 Z M 2295.204346 2045.898193 C 2300.031738 2039.321533 2305.015137 2032.999512 2310.173096 2027.091797 C 2305.015137 2032.999512 2300.031738 2039.321533 2295.204346 2045.898193 C 2291.98584 2050.282227 2288.836426 2054.779785 2285.750244 2059.343018 C 2288.836426 2054.779785 2291.98584 2050.282227 2295.204346 2045.898193 Z M 2337.510986 2001.737305 C 2340.570068 1999.582275 2343.838867 1997.153564 2347.261963 1994.608643 C 2349.075928 1993.26123 2350.944824 1991.872559 2352.858643 1990.469727 C 2350.944824 1991.872559 2349.075928 1993.26123 2347.261963 1994.608643 C 2343.838867 1997.153564 2340.570068 1999.582275 2337.510986 2001.737305 C 2331.715576 2005.823486 2326.12793 2010.589355 2320.728027 2015.874756 C 2326.12793 2010.589355 2331.715576 2005.823486 2337.510986 2001.737305 Z M 2395.855713 1968.088867 C 2400.527344 1967.411865 2405.188721 1966.814697 2409.838135 1966.297119 C 2419.136475 1965.262695 2428.388184 1964.546631 2437.589355 1964.149414 C 2446.790039 1963.752441 2455.94043 1963.674316 2465.035645 1963.913818 C 2455.94043 1963.674316 2446.790039 1963.752441 2437.589355 1964.149414 C 2428.388428 1964.546631 2419.136475 1965.262695 2409.838135 1966.297119 C 2405.188721 1966.814697 2400.527344 1967.411865 2395.855713 1968.088867 C 2393.852539 1968.37915 2391.817627 1968.843262 2389.762207 1969.453369 C 2391.817627 1968.843262 2393.852539 1968.37915 2395.855713 1968.088867 Z M 2659.036865 2028.476318 C 2647.870361 2019.724365 2636.843506 2011.439697 2624.695313 2004.416504 C 2636.844482 2011.439697 2647.870605 2019.724365 2659.036865 2028.476318 Z M 2682.730957 2046.926514 C 2679.498047 2044.501221 2676.299561 2042.058105 2673.163086 2039.604736 C 2676.299561 2042.058105 2679.498047 2044.501221 2682.730957 2046.926514 Z M 2699.33667 2058.776367 C 2698.788818 2058.378174 2698.253418 2058.000977 2697.723877 2057.630859 C 2698.253418 2058.000977 2698.788818 2058.378174 2699.33667 2058.776367 Z M 2706.0625 2063.841309 C 2707.542969 2064.976563 2709.068848 2066.141846 2710.618652 2067.308838 C 2709.068848 2066.141846 2707.542969 2064.976318 2706.062012 2063.841309 C 2704.771729 2062.852051 2703.520264 2061.896729 2702.291504 2060.968506 C 2703.520264 2061.896729 2704.771973 2062.852051 2706.0625 2063.841309 Z M 2723.126221 2075.929688 C 2721.729736 2075.092285 2720.349121 2074.197021 2718.977783 2073.281738 C 2720.349121 2074.197021 2721.729492 2075.092285 2723.126221 2075.929688 Z M 2741.357178 2082.892334 C 2740.132324 2082.761963 2738.904053 2082.522217 2737.673828 2082.233154 C 2738.903809 2082.522217 2740.132324 2082.761963 2741.357178 2082.892334 Z M 2753.306152 2081.043945 C 2754.990723 2080.268799 2756.329834 2078.658447 2757.365479 2076.264648 C 2760.81665 2068.286621 2760.894775 2051.608643 2759.16333 2028.181885 C 2758.644043 2021.154053 2757.96167 2013.518799 2757.15918 2005.328613 C 2756.954102 2003.245361 2756.765381 2001.326416 2756.607666 1999.64209 C 2756.765381 2001.326416 2756.954102 2003.245117 2757.15918 2005.328613 C 2757.961914 2013.518311 2758.644043 2021.154053 2759.16333 2028.181885 C 2760.894775 2051.608643 2760.81665 2068.286621 2757.365479 2076.264648 C 2756.329834 2078.658447 2754.990967 2080.268799 2753.306152 2081.043945 C 2750.392822 2082.382813 2747.407959 2082.995605 2744.387695 2083.036377 C 2747.407959 2082.995605 2750.392822 2082.382813 2753.306152 2081.043945 Z M 2742.975586 1885.207275 C 2740.547119 1874.146729 2738.185059 1863.007568 2735.875244 1851.920654 C 2738.185059 1863.007568 2740.547119 1874.147217 2742.975586 1885.207275 C 2743.956787 1889.674805 2744.884766 1894.153564 2745.759033 1898.640625 C 2744.884766 1894.153564 2743.956787 1889.674805 2742.975586 1885.207275 Z M 2674.750977 1241.14502 C 2691.562988 1252.155273 2707.689453 1263.741455 2723.10791 1275.854492 C 2707.689453 1263.741455 2691.562988 1252.155273 2674.750977 1241.14502 Z M 2575.376221 1490.546387 C 2568.958984 1488.76416 2562.194824 1487.494141 2555.070557 1486.771729 C 2562.194824 1487.494141 2568.958984 1488.76416 2575.376221 1490.546387 C 2578.517822 1491.419189 2581.578125 1492.412842 2584.558594 1493.521729 C 2581.578125 1492.412842 2578.518066 1491.419189 2575.376221 1490.546387 Z M 2539.25293 1486.082275 C 2541.212402 1486.058105 2543.143799 1486.076904 2545.053223 1486.128906 C 2543.143799 1486.076904 2541.212402 1486.058105 2539.25293 1486.082275 Z M 2495.547363 1489.160889 C 2491.398438 1489.094971 2487.217285 1488.923584 2483.089355 1488.753662 C 2480.907227 1488.664307 2478.714844 1488.575195 2476.520264 1488.500244 C 2478.715088 1488.575195 2480.907227 1488.664307 2483.089844 1488.753662 C 2487.218018 1488.923584 2491.398682 1489.094971 2495.547363 1489.160889 C 2496.93042 1489.182617 2498.310303 1489.192627 2499.682861 1489.187256 C 2498.309814 1489.192627 2496.93042 1489.182617 2495.547363 1489.160889 Z M 2470.293457 1488.338379 C 2470.325439 1488.338867 2470.357178 1488.3396 2470.389404 1488.340332 C 2470.357178 1488.3396 2470.325439 1488.338867 2470.293457 1488.338379 Z M 2377.567139 1545.45874 C 2360.896484 1565.658936 2348.735596 1586.855469 2339.55957 1608.009521 C 2348.735596 1586.855469 2360.895996 1565.658936 2377.566895 1545.45874 C 2382.629395 1539.324951 2388.34668 1532.673828 2394.335938 1526.206787 C 2388.34668 1532.673828 2382.629883 1539.324951 2377.567139 1545.45874 Z M 2306.519531 1750.736328 C 2306.572021 1750.14209 2306.626465 1749.547607 2306.680176 1748.953125 C 2306.626465 1749.547607 2306.572021 1750.14209 2306.519531 1750.736328 Z M 2254.820801 1989.127686 L 2253.914063 1990.621826 L 2254.820801 1989.127686 C 2259.024414 1982.204834 2263.116211 1975.441895 2267.053467 1968.734375 C 2263.116211 1975.441895 2259.024414 1982.204834 2254.820801 1989.127686 Z M 2213.220947 2056.468262 C 2219.248779 2046.294678 2225.504883 2036.274414 2231.740479 2026.362061 C 2225.504883 2036.274414 2219.249268 2046.295166 2213.220947 2056.468262 Z M 2336.044678 3209.841797 C 2329.328613 3211.651367 2322.211426 3214.486328 2315.332275 3217.227539 C 2304.044678 3221.725098 2292.373291 3226.376465 2281.526855 3227.025635 C 2266.925781 3227.891846 2245.594727 3221.587402 2234.790039 3208.172119 C 2228.861816 3200.811768 2227.140869 3192.513184 2229.67627 3183.504395 C 2231.061035 3178.575195 2237.496338 3173.846436 2248.803467 3169.444824 C 2265.137207 3163.088379 2287.983398 3158.80835 2306.337402 3155.369141 C 2315.803711 3153.593994 2323.981201 3152.062256 2329.137207 3150.616699 C 2335.768555 3148.755859 2344.656006 3143.578857 2354.066406 3138.098633 C 2368.646729 3129.605957 2384.927246 3120.125488 2396.854736 3120.125488 C 2398.59668 3120.125488 2400.240479 3120.326172 2401.776855 3120.762939 C 2405.546143 3121.82959 2408.41333 3124.281738 2410.533691 3128.253662 C 2416.955078 3140.26123 2417.926514 3151.639648 2413.410645 3162.068115 C 2401.510742 3189.580322 2355.341797 3204.644043 2336.044678 3209.841797 Z M 2225.336182 3181.533203 C 2226.089355 3179.330078 2227.412354 3177.2229 2229.423096 3175.215332 C 2227.412842 3177.2229 2226.089355 3179.330078 2225.336182 3181.533203 Z M 2269.834717 3158.070801 C 2273.704346 3157.115479 2277.631836 3156.218506 2281.567383 3155.375977 C 2277.631836 3156.218506 2273.704346 3157.115479 2269.834717 3158.070801 Z M 2311.581787 3149.514648 C 2313.957764 3149.062988 2316.21875 3148.625977 2318.303711 3148.203613 C 2316.21875 3148.625977 2313.957764 3149.062988 2311.581787 3149.514648 Z M 2394.615723 3115.452148 C 2389.067627 3115.890625 2383.001465 3117.846191 2376.765137 3120.569092 C 2383.001465 3117.846191 2389.067627 3115.890625 2394.615723 3115.452148 C 2396.608887 3115.294434 2398.536133 3115.330566 2400.381104 3115.593018 C 2398.536133 3115.330566 2396.608887 3115.294434 2394.615723 3115.452148 Z M 2363.581299 3127.160889 C 2364.624512 3126.587402 2365.66748 3126.024414 2366.712158 3125.470215 C 2365.66748 3126.024414 2364.624512 3126.587402 2363.581299 3127.160889 Z M 2223.805664 3189.94043 C 2223.694336 3192.479248 2223.892578 3194.975342 2224.39624 3197.411377 C 2223.89209 3194.975342 2223.694336 3192.479248 2223.805664 3189.94043 Z M 2235.667236 3216.019043 C 2233.996826 3214.510742 2232.453369 3212.895264 2231.065918 3211.172852 C 2232.453369 3212.895264 2233.996826 3214.510742 2235.667236 3216.019043 Z M 2243.932617 3222.08252 C 2241.951904 3220.895996 2240.052002 3219.602051 2238.263184 3218.201172 C 2240.052002 3219.602051 2241.951904 3220.895996 2243.932617 3222.08252 Z M 2260.718262 3229.206299 C 2260.068848 3229.023193 2259.421387 3228.828613 2258.772705 3228.626953 C 2259.421387 3228.828613 2260.068848 3229.023193 2260.718262 3229.206299 Z M 2281.730469 3232.484863 C 2281.75708 3232.483398 2281.785645 3232.483887 2281.812256 3232.482422 C 2290.52124 3231.961914 2299.470703 3229.134277 2308.311523 3225.795898 C 2299.471191 3229.134277 2290.521729 3231.961914 2281.812256 3232.482422 C 2281.785645 3232.483887 2281.75708 3232.483398 2281.730469 3232.484863 Z M 2330.668457 3216.530273 C 2327.220703 3217.713135 2323.692627 3219.061035 2320.068359 3220.496826 C 2323.692627 3219.061035 2327.220703 3217.713135 2330.668457 3216.530273 Z M 2388.050049 3193.900391 C 2386.469727 3194.843506 2384.873047 3195.763672 2383.255371 3196.643799 C 2384.873047 3195.763672 2386.469727 3194.843506 2388.050049 3193.900391 Z M 2400.135254 3185.610352 C 2404.430176 3182.17749 2408.300781 3178.433105 2411.506104 3174.36377 C 2414.070557 3171.108398 2416.209473 3167.644775 2417.800537 3163.966797 C 2418.440674 3162.487305 2418.985352 3160.993408 2419.43335 3159.485352 C 2418.985352 3160.993408 2418.440918 3162.487305 2417.800537 3163.966797 C 2416.209961 3167.644775 2414.070557 3171.108398 2411.506104 3174.36377 C 2408.300781 3178.433105 2404.430176 3182.17749 2400.135254 3185.610352 C 2398.417725 3186.983398 2396.631836 3188.306641 2394.793457 3189.581055 C 2396.631836 3188.306641 2398.417725 3186.983398 2400.135254 3185.610352 Z M 2414.755615 3125.998047 C 2413.411133 3123.485596 2411.774414 3121.413086 2409.864746 3119.781738 C 2411.774902 3121.413086 2413.411621 3123.485352 2414.756104 3125.998047 C 2419.218994 3134.347168 2421.293457 3142.46875 2420.971436 3150.274902 C 2421.293457 3142.468994 2419.218506 3134.347168 2414.755615 3125.998047 Z M 2739.294922 1288.984619 C 2743.737549 1292.705566 2748.114258 1296.470703 2752.42627 1300.28125 C 2748.114014 1296.470703 2743.737549 1292.705566 2739.294922 1288.984619 Z M 2404.01709 1131.104736 C 2421.340332 1134.72998 2438.377686 1138.81958 2455.111816 1143.371338 C 2499.736084 1155.509766 2542.203613 1170.935303 2582.176758 1189.610107 C 2610.532471 1202.857178 2637.483887 1217.607178 2663.000244 1233.616211 C 2637.483643 1217.607178 2610.532471 1202.857178 2582.176514 1189.610107 C 2542.203369 1170.935303 2499.736084 1155.509766 2455.111816 1143.371338 C 2438.377686 1138.81958 2421.340332 1134.72998 2404.01709 1131.104736 C 2386.694092 1127.479492 2369.085938 1124.318604 2351.209717 1121.624023 C 2369.085938 1124.318604 2386.694092 1127.479492 2404.01709 1131.104736 Z M 2315.105957 1116.857178 C 2296.880859 1114.7854 2278.399902 1113.181152 2259.680908 1112.046875 C 2278.399902 1113.181152 2296.880859 1114.7854 2315.105957 1116.857178 Z M 2164.459961 1110.294434 C 2157.880859 1110.44043 2151.279053 1110.638428 2144.653076 1110.892822 C 2151.279053 1110.638672 2157.880859 1110.44043 2164.459961 1110.294434 Z M 1746.381226 1202.733398 C 1775.914429 1186.115967 1808.218506 1171.97583 1844.302734 1160.003906 C 1866.4198 1152.665771 1890.012451 1146.16748 1915.202148 1140.387695 C 1890.012451 1146.167236 1866.419434 1152.665771 1844.302734 1160.003906 C 1808.218506 1171.97583 1775.914429 1186.116211 1746.381226 1202.733398 C 1743.348755 1204.439941 1740.235962 1206.203857 1737.05603 1208.022705 C 1740.235962 1206.203857 1743.348755 1204.439941 1746.381226 1202.733398 Z M 1590.1427 1320.863281 C 1602.245728 1305.590088 1617.303711 1290.993164 1633.768311 1277.308105 C 1638.707886 1273.202637 1643.774048 1269.178711 1648.924683 1265.243652 C 1654.585938 1260.918701 1660.351318 1256.707764 1666.161743 1252.60498 C 1660.351318 1256.707764 1654.585571 1260.918701 1648.924683 1265.243652 C 1643.774048 1269.178711 1638.707886 1273.202637 1633.768311 1277.308105 C 1617.303711 1290.993164 1602.245728 1305.590576 1590.142944 1320.863281 C 1567.708374 1349.172852 1547.263794 1380.101563 1528.974487 1413.359863 C 1547.263794 1380.101563 1567.708374 1349.172607 1590.1427 1320.863281 Z M 1701.713135 1229.075439 C 1699.330322 1230.561523 1696.933228 1232.078125 1694.53186 1233.608643 C 1696.933228 1232.078125 1699.329834 1230.561523 1701.713135 1229.075439 Z M 1490.289795 1495.053467 C 1494.487915 1484.665771 1498.889893 1474.467041 1503.450684 1464.422852 C 1498.889893 1474.467041 1494.487915 1484.665771 1490.289795 1495.053467 C 1471.177856 1542.341797 1456.322998 1592.932861 1445.681763 1646.486328 C 1456.322998 1592.932861 1471.177368 1542.341797 1490.289795 1495.053467 Z M 1443.901611 1655.656006 C 1432.210815 1717.692871 1426.124268 1783.648926 1425.794434 1853.160645 C 1426.124023 1783.64917 1432.210815 1717.692871 1443.901611 1655.656006 Z M 1438.508179 2221.443115 L 1438.508179 2223.44458 L 1438.508179 2223.44458 L 1438.508179 2221.443115 L 1438.508179 2221.443115 Z M 1441.65686 2172.427979 C 1442.117188 2187.600342 1442.380249 2202.790771 1442.378662 2217.964111 C 1442.378662 2218.861328 1442.085083 2219.533936 1441.669067 2220.040039 C 1441.53064 2220.208252 1441.378418 2220.35791 1441.219116 2220.491699 C 1441.378418 2220.35791 1441.53064 2220.208252 1441.669067 2220.040039 C 1442.085083 2219.533936 1442.378662 2218.861328 1442.378662 2217.964111 C 1442.379883 2202.790771 1442.116821 2187.600342 1441.65686 2172.427979 Z M 1441.077759 2220.592773 C 1440.729858 2220.857666 1440.365967 2221.05249 1440.029053 2221.194336 C 1440.365967 2221.05249 1440.729858 2220.857666 1441.077759 2220.592773 Z M 1436.444946 2222.793213 L 1438.705444 2223.298828 L 1436.444946 2222.793213 C 1435.710449 2222.629639 1434.979736 2222.554199 1434.247192 2222.429443 C 1434.979736 2222.554199 1435.710449 2222.629639 1436.444946 2222.793213 Z M 1426.819824 2221.73291 L 1426.819824 2221.73291 C 1422.578125 2221.73291 1418.405273 2222.337891 1414.35791 2223.44873 C 1418.404907 2222.337891 1422.578125 2221.73291 1426.819824 2221.73291 Z M 1361.713745 2299.718994 C 1361.328735 2302.867676 1361.017944 2306.064941 1360.758179 2309.304443 C 1361.018188 2306.064941 1361.328735 2302.867188 1361.713745 2299.718994 Z M 1359.168701 2400.380127 C 1359.351807 2409.033691 1359.658936 2417.709717 1360.129395 2426.390137 C 1359.658936 2417.709717 1359.351807 2409.033691 1359.168701 2400.380127 Z M 1363.473145 2465.433105 C 1364.518188 2474.092285 1365.783203 2482.732178 1367.306274 2491.335938 C 1365.783203 2482.732178 1364.518188 2474.092285 1363.473145 2465.433105 Z M 1447.848511 2662.667969 C 1438.501831 2653.329102 1430.134888 2643.045898 1422.652344 2632.23584 C 1413.922485 2619.624023 1406.396484 2606.294434 1399.922974 2592.907959 C 1391.600342 2575.696777 1385.017578 2558.391357 1379.85437 2542.396484 C 1377.143799 2534.002197 1374.768677 2525.539063 1372.69043 2517.023438 C 1374.769043 2525.539063 1377.144165 2534.002197 1379.85437 2542.396484 C 1385.017822 2558.391357 1391.600342 2575.696777 1399.922974 2592.907959 C 1406.396484 2606.294434 1413.922485 2619.624023 1422.652344 2632.23584 C 1430.134888 2643.045898 1438.501831 2653.329102 1447.848511 2662.667969 C 1452.521851 2667.337402 1457.440308 2671.771729 1462.614746 2675.91748 C 1457.439941 2671.771729 1452.521851 2667.337891 1447.848511 2662.667969 Z M 1555.148438 2895.259766 C 1548.685425 2876.810547 1542.61499 2857.910645 1536.939453 2838.568359 C 1524.169189 2795.04834 1513.39917 2749.287598 1504.664551 2701.374268 L 1504.469604 2700.302734 L 1504.664551 2701.374268 C 1513.39917 2749.287598 1524.169189 2795.04834 1536.939453 2838.568359 C 1542.61499 2857.910645 1548.685425 2876.810547 1555.148438 2895.259766 C 1559.995728 2909.09668 1565.062988 2922.68042 1570.349976 2936.007324 C 1565.062988 2922.68042 1559.995728 2909.09668 1555.148438 2895.259766 Z M 1586.866699 2975.2146 C 1583.050537 2966.674561 1579.331787 2958.018799 1575.709717 2949.248535 C 1579.331787 2958.018799 1583.050537 2966.674561 1586.866699 2975.2146 C 1590.682617 2983.755371 1594.595337 2992.180176 1598.604614 3000.488281 C 1594.595093 2992.180176 1590.682617 2983.755371 1586.866699 2975.2146 Z M 1883.619019 3317.757813 C 1878.028198 3314.573242 1872.458862 3311.325195 1866.938965 3307.943848 C 1872.458862 3311.325195 1878.028198 3314.573242 1883.619019 3317.757813 Z M 1899.608765 3326.54834 C 1905.20813 3329.515625 1910.827148 3332.420898 1916.485962 3335.187744 C 1910.827148 3332.420898 1905.20813 3329.515625 1899.608765 3326.54834 Z M 1929.122559 3341.177246 C 1941.803589 3346.999023 1954.615845 3352.31543 1967.529785 3357.105469 C 1954.615845 3352.31543 1941.803589 3346.999023 1929.122559 3341.177246 Z M 2230.126953 3385.066895 C 2226.249023 3385.574219 2222.37085 3386.042969 2218.493408 3386.47168 C 2222.37085 3386.042969 2226.248779 3385.574219 2230.126953 3385.066895 C 2233.577393 3384.615234 2236.980713 3384.165039 2240.341797 3383.712891 C 2250.898926 3382.292969 2261.029297 3380.845215 2270.908203 3379.263672 C 2261.029297 3380.845215 2250.898926 3382.292969 2240.341797 3383.712891 C 2236.980713 3384.165039 2233.577393 3384.615234 2230.126953 3385.066895 Z M 2324.489014 3368.197754 C 2330.50708 3366.598145 2336.538086 3364.852539 2342.62207 3362.931152 C 2336.538086 3364.852539 2330.50708 3366.598145 2324.489014 3368.197754 Z M 2380.093262 3349.041016 C 2376.863281 3350.415283 2373.666748 3351.730469 2370.499268 3352.98999 C 2364.163574 3355.508789 2357.941895 3357.806152 2351.793945 3359.912109 C 2357.941895 3357.806152 2364.163574 3355.508789 2370.499268 3352.98999 C 2373.666748 3351.730469 2376.863281 3350.415283 2380.093262 3349.041016 C 2387.88623 3345.725098 2395.631592 3342.357178 2403.326416 3338.937012 C 2422.611572 3330.367188 2441.534912 3321.439453 2460.135498 3312.251953 C 2441.5354 3321.440186 2422.611572 3330.367188 2403.326416 3338.937012 C 2395.631592 3342.357178 2387.88623 3345.725098 2380.093262 3349.041016 Z M 2589.840332 3240.816895 C 2588.731934 3241.44873 2587.591797 3242.10498 2586.476563 3242.741211 C 2587.591797 3242.105469 2588.731689 3241.44873 2589.839844 3240.816895 C 2590.835205 3240.249023 2591.839111 3239.673584 2592.836426 3239.105225 C 2591.839111 3239.673584 2590.835205 3240.249023 2589.840332 3240.816895 Z M 2768.923584 3083.019531 C 2766.62793 3086.582031 2764.303955 3090.145996 2761.911377 3093.705811 C 2764.303955 3090.145996 2766.62793 3086.582031 2768.923584 3083.019531 Z M 2862.689697 2877.35791 C 2858.814453 2890.722168 2854.637695 2903.869873 2850.154541 2916.812988 C 2854.637451 2903.869873 2858.814453 2890.722168 2862.689697 2877.35791 C 2874.314697 2837.265137 2883.222656 2795.227051 2889.520752 2750.936035 C 2889.516357 2750.922119 2889.516357 2750.91748 2889.520752 2750.919922 L 2889.520996 2750.919922 C 2889.516113 2750.91748 2889.516113 2750.922119 2889.520996 2750.936035 C 2883.223389 2795.227051 2874.314941 2837.265137 2862.689697 2877.35791 Z M 2894.102051 2753.276123 C 2893.495117 2752.790527 2893.299072 2752.339844 2893.39209 2751.622803 C 2893.39209 2751.615723 2893.396973 2751.599365 2893.396973 2751.592285 C 2893.396973 2751.592285 2893.396973 2751.590332 2893.396973 2751.587646 L 2891.818359 2751.365234 L 2893.396973 2751.587646 C 2893.396973 2751.590332 2893.396973 2751.592285 2893.396973 2751.592285 C 2893.396973 2751.599365 2893.39209 2751.615723 2893.39209 2751.622803 C 2893.299072 2752.339844 2893.495117 2752.790527 2894.102539 2753.276123 C 2896.710693 2755.354492 2903.324463 2755.841797 2911.945068 2755.338867 C 2914.009521 2755.218506 2916.195801 2755.038086 2918.463135 2754.8125 C 2916.195068 2755.038086 2914.009521 2755.218506 2911.945068 2755.338867 C 2903.324463 2755.841309 2896.710449 2755.354492 2894.102051 2753.276123 Z M 2930.83252 2753.382813 C 2927.07959 2753.928711 2923.432373 2754.390625 2919.974365 2754.746094 C 2923.432373 2754.390625 2927.07959 2753.928711 2930.83252 2753.382813 C 2934.713135 2752.818848 2938.700439 2752.168213 2942.688965 2751.462891 C 2938.700439 2752.168213 2934.713135 2752.818848 2930.83252 2753.382813 Z M 2950.63623 2749.989746 C 2958.523193 2748.462402 2966.133057 2746.801758 2972.623779 2745.262207 C 2966.133057 2746.801758 2958.522705 2748.462402 2950.63623 2749.989746 Z M 2975.771729 2744.503418 C 2977.802734 2744.005859 2979.694092 2743.526367 2981.414307 2743.074707 C 2982.893311 2742.686035 2984.216064 2742.322998 2985.422363 2741.981201 C 2984.216064 2742.322998 2982.893311 2742.686035 2981.414307 2743.074707 C 2979.694092 2743.526367 2977.802734 2744.005859 2975.771729 2744.503418 Z M 3049.495361 2701.09375 C 3049.531494 2701.057617 3049.568848 2701.023438 3049.605225 2700.986816 C 3049.568848 2701.023438 3049.531494 2701.057617 3049.495361 2701.09375 Z M 3037.083496 2712.461914 C 3037.488037 2712.12207 3037.89209 2711.782227 3038.294678 2711.437744 C 3037.89209 2711.782227 3037.488037 2712.12207 3037.083496 2712.461914 Z M 3139.668945 2414.403076 C 3139.144531 2408.538086 3138.481201 2402.76001 3137.663818 2397.095215 C 3138.481201 2402.760498 3139.144531 2408.538086 3139.668945 2414.403076 Z M 3141.024414 2439.802734 C 3141.022461 2439.696289 3141.017822 2439.590088 3141.015869 2439.483643 C 3141.017822 2439.590088 3141.022461 2439.696289 3141.024414 2439.802734 Z M 3134.516113 2379.319092 C 3135.182129 2382.5 3135.814697 2385.709473 3136.378418 2388.974854 C 3135.814697 2385.709473 3135.182129 2382.5 3134.516113 2379.319092 Z M 3128.60498 2356.487305 C 3129.005127 2357.765869 3129.393555 2359.055908 3129.774658 2360.354248 C 3129.393555 2359.055908 3129.005127 2357.765869 3128.60498 2356.487305 Z"/>
</svg>
